<?xml version="1.0" standalone="no"?>
<!DOCTYPE svg PUBLIC "-//W3C//DTD SVG 20010904//EN"
 "http://www.w3.org/TR/2001/REC-SVG-20010904/DTD/svg10.dtd">
<svg version="1.0" xmlns="http://www.w3.org/2000/svg"
 width="512.000000pt" height="512.000000pt" viewBox="0 0 512.000000 512.000000"
 preserveAspectRatio="xMidYMid meet">
<metadata>
Created by potrace 1.14, written by Peter Selinger 2001-2017
</metadata>
<g transform="translate(0.000000,512.000000) scale(0.100000,-0.100000)"
fill="#000000" stroke="none">
<path d="M3637 3460 c-348 -63 -619 -305 -723 -645 -25 -81 -28 -105 -28 -245
0 -140 3 -164 28 -245 98 -322 341 -554 666 -636 81 -20 337 -18 416 4 329 91
571 332 660 656 21 78 29 270 15 360 -54 342 -306 626 -646 726 -71 21 -117
27 -215 30 -69 2 -147 0 -173 -5z m316 -126 c78 -17 230 -85 287 -128 368
-277 431 -786 143 -1139 -271 -331 -778 -375 -1109 -96 -120 101 -224 273
-258 426 -20 92 -21 253 0 346 21 95 101 258 161 327 109 127 262 223 414 260
96 24 265 26 362 4z"/>
<path d="M3740 3000 c-18 -18 -20 -33 -20 -195 l0 -175 -175 0 c-162 0 -177
-2 -195 -20 -11 -11 -20 -29 -20 -40 0 -11 9 -29 20 -40 18 -18 33 -20 195
-20 l175 0 0 -175 c0 -162 2 -177 20 -195 27 -27 65 -26 84 2 13 18 16 55 16
195 l0 173 173 0 c140 0 177 3 195 16 28 19 29 57 2 84 -18 18 -33 20 -195 20
l-175 0 0 175 c0 162 -2 177 -20 195 -11 11 -29 20 -40 20 -11 0 -29 -9 -40
-20z"/>
<path d="M1197 3450 c-348 -63 -619 -305 -723 -645 -25 -81 -28 -105 -28 -245
0 -140 3 -164 28 -245 98 -322 341 -554 666 -636 81 -20 337 -18 416 4 329 91
571 332 660 656 21 78 29 270 15 360 -54 342 -306 626 -646 726 -71 21 -117
27 -215 30 -69 2 -147 0 -173 -5z m316 -126 c78 -17 230 -85 287 -128 368
-277 431 -786 143 -1139 -271 -331 -778 -375 -1109 -96 -120 101 -224 273
-258 426 -20 92 -21 253 0 346 21 95 101 258 161 327 109 127 262 223 414 260
96 24 265 26 362 4z"/>
<path d="M907 2592 c-22 -24 -21 -55 1 -75 17 -15 61 -17 434 -17 389 0 416 1
431 18 22 24 21 55 -1 75 -17 15 -61 17 -434 17 -389 0 -416 -1 -431 -18z"/>
</g>
</svg>
